# xmcd CD database file
#
# Track frame offsets:
#	150
#	19267
#	39815
#	59040
#
# Disc length: 1087 seconds
#
# Revision: 0
# Processed by: cddbd v1.5.1PL2 Copyright (c) Steve Scherf et al.
# Submitted via: CDex 1.51
#
DISCID=2d043d04
DTITLE=斎藤千和(テンコ) - あの日から
DYEAR=2005
DGENRE=Anime
TTITLE0=あの日から
TTITLE1=あの日から[リミックスバージョン]
TTITLE2=あの日から[カラオケ]
TTITLE3=[ボーナストラック]キャストメッセージ
EXTD=YEAR: 2005
EXTT0=
EXTT1=
EXTT2=
EXTT3=
PLAYORDER=
